<?xml version="1.0" standalone="no"?>
<svg viewBox="0 0 200 200" xmlns="http://www.w3.org/2000/svg">
  <path fill="#FFD6E8" d="M39.7,-67.7C52.5,-61.4,64.7,-52.9,67.2,-41.3C69.6,-29.6,62.2,-14.8,53.6,-4.9C45.1,4.9,35.3,9.8,32.8,21.4C30.4,32.9,35.2,51.1,30.9,59.9C26.6,68.7,13.3,68.3,0.7,67.1C-11.9,65.8,-23.8,63.8,-28.6,55.3C-33.5,46.7,-31.3,31.8,-30.4,21.5C-29.5,11.2,-29.8,5.6,-39.3,-5.5C-48.8,-16.6,-67.5,-33.2,-68.5,-43.6C-69.5,-54,-52.8,-58.3,-38.4,-63.7C-24.1,-69.2,-12,-75.8,0.7,-77C13.4,-78.3,26.9,-74.1,39.7,-67.7Z" transform="translate(100 100)" />
</svg>
