<?xml version="1.0" standalone="no"?>
<svg viewBox="0 0 200 200" xmlns="http://www.w3.org/2000/svg">
  <path fill="#9EF0F0" d="M33.3,-54.9C47.4,-49.4,66.2,-49.2,71.5,-41C76.9,-32.7,68.8,-16.4,65.7,-1.8C62.6,12.8,64.6,25.6,60.9,36.8C57.3,48,48.1,57.7,37,65.1C25.9,72.6,13,77.9,0.7,76.7C-11.6,75.6,-23.3,68,-37.5,62.4C-51.7,56.7,-68.6,53,-75.3,43C-82,32.9,-78.6,16.4,-78.8,-0.1C-79,-16.7,-82.8,-33.3,-74.7,-41.1C-66.7,-48.9,-46.9,-47.8,-32.4,-53.2C-18,-58.5,-9,-70.3,0.3,-70.8C9.6,-71.3,19.1,-60.5,33.3,-54.9Z" transform="translate(100 100)" />
</svg>
