<?xml version="1.0" standalone="no"?>
<svg viewBox="0 0 200 200" xmlns="http://www.w3.org/2000/svg">
  <path fill="#BAE6FF" d="M36.2,-57.7C46.6,-56.7,54.5,-46.4,59.9,-35.2C65.4,-24,68.4,-12,70.7,1.3C73,14.6,74.4,29.2,69.1,40.6C63.7,51.9,51.5,60,38.9,65.4C26.2,70.9,13.1,73.7,0.8,72.3C-11.5,70.8,-23,65.2,-35,59.5C-47.1,53.7,-59.8,47.8,-64.2,37.8C-68.6,27.9,-64.8,13.9,-60.9,2.3C-56.9,-9.4,-52.9,-18.8,-48.2,-28.4C-43.6,-38,-38.5,-47.9,-30.4,-50.1C-22.2,-52.4,-11.1,-46.9,0.9,-48.5C12.9,-50,25.8,-58.6,36.2,-57.7Z" transform="translate(100 100)" />
</svg>
