<?xml version="1.0" standalone="no"?>
<svg viewBox="0 0 200 200" xmlns="http://www.w3.org/2000/svg">
  <path fill="#E8DAFF" d="M36.9,-62.5C43.7,-60,42.1,-41.7,45.7,-28.7C49.3,-15.6,58,-7.8,61.3,1.9C64.6,11.6,62.5,23.3,55.2,29.8C47.8,36.4,35.3,37.8,25.2,47.1C15.1,56.4,7.6,73.6,-4.2,80.9C-16,88.2,-32.1,85.8,-44.8,78C-57.6,70.3,-67.1,57.3,-63.6,43.4C-60.1,29.5,-43.7,14.7,-40.3,2C-36.9,-10.8,-46.6,-21.6,-49.3,-34.3C-52.1,-47,-48,-61.5,-38.6,-62.5C-29.3,-63.4,-14.6,-50.7,0.2,-51.1C15.1,-51.5,30.2,-64.9,36.9,-62.5Z" transform="translate(100 100)" />
</svg>
