<?xml version="1.0" standalone="no"?>
<svg viewBox="0 0 200 200" xmlns="http://www.w3.org/2000/svg">
  <path fill="#A7F0BA" d="M41.8,-65.5C53.8,-57.3,63,-45.2,66.4,-32C69.7,-18.9,67.2,-4.8,62.3,6.9C57.5,18.7,50.4,28.1,42.9,37.8C35.5,47.6,27.7,57.7,16.7,64.3C5.7,70.8,-8.4,73.9,-18.6,68.5C-28.7,63.1,-34.8,49.3,-42.3,38.1C-49.9,26.9,-58.9,18.3,-67.1,5.5C-75.4,-7.3,-82.9,-24.3,-78.7,-37C-74.5,-49.7,-58.6,-58.1,-43.5,-64.9C-28.5,-71.7,-14.2,-77,0.3,-77.5C14.9,-78,29.8,-73.8,41.8,-65.5Z" transform="translate(100 100)" />
</svg>
