<?xml version="1.0" standalone="no"?>
<svg viewBox="0 0 200 200" xmlns="http://www.w3.org/2000/svg">
  <path fill="#F2F4F8" d="M43,-63.2C54.8,-59.3,62.8,-45.8,64.2,-32.4C65.6,-18.9,60.4,-5.5,56.4,6.6C52.3,18.8,49.5,29.6,44,40.8C38.5,51.9,30.2,63.3,18.1,71.2C6,79.1,-9.9,83.5,-18.9,75.7C-28,68,-30.2,48,-32.8,34.3C-35.5,20.7,-38.6,13.3,-43.1,4.2C-47.5,-5,-53.2,-15.9,-54.7,-30.2C-56.3,-44.4,-53.6,-61.9,-43.8,-66.6C-34,-71.3,-17,-63.3,-0.7,-62.2C15.6,-61.1,31.2,-67,43,-63.2Z" transform="translate(100 100)" />
</svg>
